<?xml version="1.0" encoding="UTF-8" standalone="no"?>
<svg
   id="b25111b9-59d7-4c3f-817f-4bbd1516dccd"
   data-name="Layer 1"
   viewBox="0 0 499.99999 499.99999"
   version="1.1"
   sodipodi:docname="2.svg"
   width="500"
   height="500"
   inkscape:version="1.2.2 (732a01da63, 2022-12-09)"
   xml:space="preserve"
   xmlns:inkscape="http://www.inkscape.org/namespaces/inkscape"
   xmlns:sodipodi="http://sodipodi.sourceforge.net/DTD/sodipodi-0.dtd"
   xmlns="http://www.w3.org/2000/svg"
   xmlns:svg="http://www.w3.org/2000/svg"><defs
     id="defs109" /><sodipodi:namedview
     id="namedview107"
     pagecolor="#505050"
     bordercolor="#eeeeee"
     borderopacity="1"
     inkscape:showpageshadow="0"
     inkscape:pageopacity="0"
     inkscape:pagecheckerboard="0"
     inkscape:deskcolor="#505050"
     showgrid="false"
     inkscape:zoom="0.4151379"
     inkscape:cx="137.30377"
     inkscape:cy="337.23734"
     inkscape:window-width="1366"
     inkscape:window-height="705"
     inkscape:window-x="-8"
     inkscape:window-y="-8"
     inkscape:window-maximized="1"
     inkscape:current-layer="b25111b9-59d7-4c3f-817f-4bbd1516dccd" /><g
     id="g2047"
     transform="matrix(6.1078227,0,0,6.261419,0.13578562,0.02560431)"><path
       d="m 28.22,31.22 a 5.67,5.67 0 0 1 -2.58,-1.38 5.61,5.61 0 0 1 -1.43,-2.13 v 0 A 7.64,7.64 0 0 1 24,22.6 a 2.08,2.08 0 0 1 3.66,-0.51 0.64,0.64 0 0 1 0.07,0.12 v 4.08 a 26.22,26.22 0 0 0 0.49,4.93 z"
       fill="#e2c19b"
       id="path1853" /><path
       d="m 58.34,27.69 v 0 a 5.67,5.67 0 0 1 -1.44,2.14 5.8,5.8 0 0 1 -2.59,1.38 26.22,26.22 0 0 0 0.46,-4.93 v -4.07 a 0.64,0.64 0 0 1 0.07,-0.12 2.08,2.08 0 0 1 3.66,0.51 7.72,7.72 0 0 1 -0.16,5.09 z"
       fill="#e2c19b"
       id="path1855" /><path
       d="m 54.77,22.21 v 4.08 a 26.22,26.22 0 0 1 -0.46,4.93 24.39,24.39 0 0 1 -1.5,5 21.63,21.63 0 0 1 -1.16,2.37 c -0.3,0.53 -0.63,1.07 -1,1.59 -2.16,3.24 -5.23,6.08 -9.4,6.08 -4.17,0 -7.25,-2.84 -9.39,-6.08 v 0 c -0.35,-0.52 -0.67,-1.05 -1,-1.58 a 23.68,23.68 0 0 1 -1.17,-2.37 25,25 0 0 1 -1.5,-5 26.22,26.22 0 0 1 -0.46,-4.93 v -4.09 c 0,0 3.58,-0.24 3.76,-6.07 0.18,-5.83 3.62,-8.49 9.75,-8.49 6.13,0 9.61,2.65 9.76,8.49 0.15,5.84 3.77,6.07 3.77,6.07 z"
       fill="#e2c19b"
       id="path1857" /><path
       d="m 51.87,51.33 a 2,2 0 0 1 -0.3,0.93 c -0.9,1.54 -10.3,8.23 -10.3,8.23 0,0 -9.41,-6.69 -10.27,-8.23 a 2,2 0 0 1 -0.3,-0.95 1.4,1.4 0 0 0 0.1,-0.16 6.81,6.81 0 0 0 0.59,-1.32 v 0 a 9.34,9.34 0 0 0 0.49,-3.06 v -6.59 c 2.16,3.24 5.24,6.08 9.41,6.08 4.17,0 7.24,-2.84 9.4,-6.08 v 6.58 a 9.34,9.34 0 0 0 0.49,3.06 v 0 a 6.81,6.81 0 0 0 0.59,1.32 1.74,1.74 0 0 0 0.1,0.19 z"
       fill="#e2c19b"
       id="path1859" /><path
       d="M 81.34,79.32 H 1.19 c 0.34,-8.45 10.35,-18 20.08,-22 a 43.07,43.07 0 0 0 4.64,-2.2 c 0.47,5.61 7.37,14.49 7.37,14.49 l 0.78,-0.88 4.2,5.67 v 0 l 3,4.06 3,-4.06 4.21,-5.68 0.77,0.88 c 0,0 6.9,-8.88 7.37,-14.49 a 45.35,45.35 0 0 0 4.65,2.2 C 71,61.27 81,70.87 81.34,79.32 Z"
       fill="#164e70"
       id="path1861" /><path
       d="m 41.27,60.49 -3.63,4.13 -3.58,4.07 -0.78,0.88 c 0,0 -6.9,-8.88 -7.37,-14.49 0,0 0,-0.09 0,-0.15 1.44,-2.54 5,-4.81 5.43,-5.08 v 0 a 6.81,6.81 0 0 1 -0.59,1.32 1.4,1.4 0 0 1 -0.1,0.16 2,2 0 0 0 0.3,0.95 c 0.91,1.52 10.32,8.21 10.32,8.21 z"
       fill="#ffe662"
       id="path1863" /><path
       d="m 58.34,27.69 a 7.72,7.72 0 0 0 0.16,-5.09 2.08,2.08 0 0 0 -3.66,-0.51 0.64,0.64 0 0 0 -0.07,0.12 c 0,0 -3.58,-0.21 -3.77,-6.07 -0.19,-5.86 -3.63,-8.49 -9.75,-8.49 -6.12,0 -9.58,2.65 -9.75,8.49 -0.17,5.84 -3.76,6.07 -3.76,6.07 A 0.64,0.64 0 0 0 27.67,22.09 2.08,2.08 0 0 0 24,22.6 a 7.64,7.64 0 0 0 0.18,5.1 c -4.3,-4.16 -3.09,-10.57 0.09,-13.81 1.65,-2 1.95,-4.38 2.62,-6.65 a 9.33,9.33 0 0 1 6.81,-6.42 12.15,12.15 0 0 1 7.57,0.63 12.13,12.13 0 0 1 7.56,-0.63 9.33,9.33 0 0 1 6.79,6.42 c 0.66,2.27 1,4.65 2.62,6.65 3.18,3.23 4.38,9.64 0.1,13.8 z"
       fill="#2d2f33"
       id="path1865" /><path
       d="m 29.72,36.22 a 5.77,5.77 0 0 1 -4.08,-6.38 5.67,5.67 0 0 0 2.58,1.38 25,25 0 0 0 1.5,5 z"
       fill="#2d2f33"
       id="path1867" /><path
       d="m 52.81,36.22 a 24.39,24.39 0 0 0 1.5,-5 5.8,5.8 0 0 0 2.59,-1.38 5.79,5.79 0 0 1 -4.09,6.38 z"
       fill="#2d2f33"
       id="path1869" /><path
       d="m 44.27,74.37 -3,4.06 -3,-4.06 v 0 l 1.09,-7.17 a 1.14,1.14 0 0 0 0,-0.32 h 3.84 a 0.86,0.86 0 0 0 0,0.32 z"
       fill="#5faafd"
       id="path1871" /><path
       d="m 48.48,68.69 -4.21,5.68 -1.08,-7.18 a 0.86,0.86 0 0 1 0,-0.32 1,1 0 0 1 0.21,-0.44 l 1.5,-1.81 z"
       fill="#ffe662"
       id="path1873" /><path
       d="m 39.35,66.87 a 1.14,1.14 0 0 1 0,0.32 l -1.09,7.17 -4.2,-5.67 3.58,-4.07 1.5,1.81 a 1.12,1.12 0 0 1 0.21,0.44 z"
       fill="#ffe662"
       id="path1875" /><path
       d="m 44.9,64.62 -1.5,1.81 a 1,1 0 0 0 -0.21,0.44 h -3.84 a 1.12,1.12 0 0 0 -0.21,-0.44 l -1.5,-1.81 3.63,-4.13 z"
       fill="#5faafd"
       id="path1877" /><path
       d="m 56.63,54.93 c 0,0.06 0,0.1 0,0.15 -0.47,5.61 -7.37,14.49 -7.37,14.49 L 48.49,68.69 44.9,64.62 41.27,60.49 c 0,0 9.4,-6.69 10.3,-8.23 a 2,2 0 0 0 0.3,-0.93 1.74,1.74 0 0 1 -0.11,-0.18 6.81,6.81 0 0 1 -0.59,-1.32 v 0 c 0.47,0.29 4.02,2.56 5.46,5.1 z"
       fill="#ffe662"
       id="path1879" /><path
       d="m 23.69,66.85 v 0 c 0,0 -7.77,-2.07 -17.41,3.36 L 11.7,44.14 c 6.68,8.81 14.63,10 14.63,10 z"
       fill="#ffffff"
       id="path1881" /><path
       d="M 11.78,43.75 11.7,44.14 6.28,70.22 6.2,70.6 A 1.63,1.63 0 0 1 4.26,71.87 L 2.81,71.57 A 1.63,1.63 0 0 1 1.54,69.63 L 3.09,62.17 5.56,50.24 7.11,42.78 a 1.64,1.64 0 0 1 1.94,-1.27 l 1.46,0.3 a 1.64,1.64 0 0 1 1.27,1.94 z"
       fill="#f2f2f2"
       id="path1883" /><path
       d="M 5.56,50.24 3.09,62.17 a 6.69,6.69 0 0 1 -2.33,-3.5 6.83,6.83 0 0 1 4.73,-8.42 z"
       fill="#ef3b46"
       id="path1885" /><path
       d="m 38.57,59 -1.72,8.24 A 2.28,2.28 0 0 1 34.16,69 H 33.89 L 28.21,67.82 23.7,66.88 v 0 l 2.64,-12.7 10.46,2.15 A 2.28,2.28 0 0 1 38.57,59 Z"
       fill="#f2f2f2"
       id="path1887" /><path
       d="m 33.89,69 a 37.14,37.14 0 0 1 -6,10.35 h -8.5 a 21.52,21.52 0 0 0 6.75,-7.45 34,34 0 0 0 2,-4.08 z"
       fill="#ef3b46"
       id="path1889" /><path
       d="M 40.54,79.32 H 19.21 c 0.29,-0.55 0.83,-0.61 1.1,-1 0.44,-0.68 -0.5,-1.28 0,-2.11 a 1.65,1.65 0 0 1 0.83,-0.69 1.15,1.15 0 0 0 0.66,-1.35 2,2 0 0 1 0.94,-2 c 0.38,-0.14 1.07,-0.21 1.05,-1.36 A 2.59,2.59 0 0 1 25,68.84 c 0,0 0.52,-0.39 1.52,0.29 a 45.69,45.69 0 0 0 5.86,3 h 0.1 c 0.18,-0.38 0.56,-1.16 0.81,-1.72 l 1.07,0.17 a 3.46,3.46 0 0 1 3,2.58 c 0.41,1.36 1.63,4.8 2.56,5.63 a 4.82,4.82 0 0 0 0.62,0.53 z"
       fill="#e2c19b"
       id="path1891" /><path
       d="m 26.41,30.45 a 5.17,5.17 0 0 1 -0.77,-0.61 5.61,5.61 0 0 1 -1.43,-2.13 v 0 A 7.7,7.7 0 0 1 23.85,23.28 5.92,5.92 0 0 1 24,22.6 a 2,2 0 0 1 0.64,-0.91 19,19 0 0 0 0.09,3.16 16.32,16.32 0 0 0 1.68,5.6 z"
       fill="#d59951"
       id="path1893" /><path
       d="m 58.83,24.36 a 7.1,7.1 0 0 1 0,1.13 c 0,0.18 0,0.38 -0.07,0.57 v 0 a 5.42,5.42 0 0 1 -0.21,1 4.36,4.36 0 0 1 -0.21,0.64 v 0 a 5.75,5.75 0 0 1 -2.71,3 10.88,10.88 0 0 0 1.22,-9.5 2.23,2.23 0 0 1 0.52,0.15 0.61,0.61 0 0 1 0.14,0.07 1.18,1.18 0 0 1 0.19,0.11 l 0.15,0.11 a 1.71,1.71 0 0 1 0.2,0.18 c 0.06,0.06 0.11,0.13 0.16,0.19 a 2.06,2.06 0 0 1 0.29,0.55 c 0,0.12 0.08,0.24 0.11,0.37 a 2.82,2.82 0 0 1 0.07,0.31 3.51,3.51 0 0 1 0.1,0.58 2.73,2.73 0 0 1 0.05,0.54 z"
       fill="#f0e0cd"
       id="path1895" /><path
       d="m 40.15,46.18 c -3.61,-0.44 -6.33,-3.06 -8.29,-6 v 0 c -0.35,-0.52 -0.67,-1.05 -1,-1.58 a 23.68,23.68 0 0 1 -1.17,-2.37 25,25 0 0 1 -1.5,-5 26.22,26.22 0 0 1 -0.46,-4.93 v -4.09 c 0,0 3.58,-0.24 3.76,-6.07 q 0,-0.44 0.06,-0.84 a 2.71,2.71 0 0 1 0,-0.41 c 0,-0.26 0.07,-0.5 0.11,-0.74 a 0.19,0.19 0 0 1 0,-0.08 8.08,8.08 0 0 1 0.2,-0.85 c 0.07,-0.23 0.14,-0.45 0.23,-0.67 0.09,-0.22 0.13,-0.31 0.2,-0.48 a 1.09,1.09 0 0 1 0.08,-0.15 c 0.07,-0.15 0.15,-0.3 0.23,-0.45 a 5.52,5.52 0 0 1 0.5,-0.73 3.3,3.3 0 0 1 0.32,-0.4 L 33.62,10.13 34,9.9 a 2.35,2.35 0 0 1 0.29,-0.26 c 0.16,-0.13 0.32,-0.25 0.5,-0.37 a 4,4 0 0 1 0.49,-0.3 h 0.05 c 0.15,-0.09 0.3,-0.16 0.46,-0.24 L 36.1,8.6 36.47,8.44 37,8.2 a 32.75,32.75 0 0 0 -3,7.18 c 0,0 -7.9,21.7 6.15,30.8 z"
       fill="#d59951"
       id="path1897" /><path
       d="m 47.23,44 c -1.74,2.24 -6.91,7.33 -15.39,3.2 v 0 a 3.54,3.54 0 0 0 0,-0.46 v -6.56 c 2,2.94 4.68,5.56 8.29,6 a 6.87,6.87 0 0 0 1.12,0.08 9.37,9.37 0 0 0 5.98,-2.26 z"
       fill="#d59951"
       id="path1899" /><path
       d="m 9.35,68.71 c -2.39,3.13 -4,8.23 -4.67,10.61 H 1.19 a 16.07,16.07 0 0 1 2.55,-7.56 l 0.52,0.11 A 1.63,1.63 0 0 0 6.2,70.6 l 0.08,-0.38 a 29.91,29.91 0 0 1 3.07,-1.51 z"
       fill="#123a4f"
       id="path1901" /><path
       d="m 36.25,0.5 a 12,12 0 0 0 -7.88,9.21 10,10 0 0 1 -1.94,4.57 c -1.32,1.68 -2.44,1.94 -3,4.89 a 7.12,7.12 0 0 0 0.4,4.1 7.7,7.7 0 0 0 0.36,4.43 c -4.3,-4.16 -3.09,-10.57 0.09,-13.81 1.65,-2 1.95,-4.38 2.62,-6.65 A 9.33,9.33 0 0 1 33.7,0.82 11.33,11.33 0 0 1 36.25,0.5 Z"
       fill="#252324"
       id="path1903" /><path
       d="m 58.83,25.49 a 7.1,7.1 0 0 0 0,-1.13 2.73,2.73 0 0 0 0,-0.5 c 2.19,-4.48 -2.46,-8.52 -4.54,-13 A 8.26,8.26 0 0 1 53.62,7.75 C 53.47,5.22 51.8,2.84 50.52,1.36 a 9.3,9.3 0 0 1 5.15,5.86 c 0.66,2.27 1,4.65 2.62,6.65 3.18,3.23 4.38,9.64 0.1,13.8 a 4.36,4.36 0 0 0 0.21,-0.64 5.42,5.42 0 0 0 0.21,-1 v 0 a 4,4 0 0 0 0.02,-0.54 z"
       fill="#43464c"
       id="path1905" /><path
       d="m 29.72,36.22 a 5.77,5.77 0 0 1 -4.08,-6.38 5.17,5.17 0 0 0 0.77,0.61 6.07,6.07 0 0 0 1.81,0.77 25,25 0 0 0 1.5,5 z"
       fill="#252324"
       id="path1907" /><path
       d="m 40.54,79.32 h -2.29 c -0.91,-1.35 -2.07,-3.3 -2.19,-4.65 a 8.14,8.14 0 0 0 -1.91,-4 h 0.21 A 3.38,3.38 0 0 1 36,71.32 l 1.2,1.62 a 1.63,1.63 0 0 1 0.11,0.31 c 0.41,1.36 1.63,4.8 2.56,5.63 a 4.82,4.82 0 0 0 0.67,0.44 z"
       fill="#f0e0cd"
       id="path1909" /><path
       d="m 37.23,7.65 c 0,0 -3.5,3.59 -3.11,7.28 0.39,3.69 -1.78,8.58 -5.17,9.3"
       fill="none"
       stroke="#2d2f33"
       stroke-linecap="round"
       stroke-miterlimit="10"
       stroke-width="0.5"
       id="path1911" /><path
       d="M 27.76,22.21 27.69,22.1 a 2.08,2.08 0 0 0 -3.66,0.5 c -0.9,2.61 -0.29,7.51 4.19,8.62"
       fill="none"
       stroke="#1d1e21"
       stroke-linecap="round"
       stroke-linejoin="round"
       id="path1913" /><path
       d="m 54.77,22.24 v 4.05 a 25,25 0 0 1 -3.12,12.3 c -2.17,3.84 -5.54,7.68 -10.38,7.68 -4.84,0 -8.22,-3.84 -10.39,-7.68 a 25,25 0 0 1 -3.12,-12.3 v -4.07"
       fill="none"
       stroke="#1d1e21"
       stroke-linecap="round"
       stroke-linejoin="round"
       id="path1915" /><path
       d="m 54.77,22.21 0.07,-0.11 a 2.08,2.08 0 0 1 3.66,0.5 c 0.9,2.61 0.29,7.51 -4.19,8.62"
       fill="none"
       stroke="#1d1e21"
       stroke-linecap="round"
       stroke-linejoin="round"
       id="path1917" /><path
       d="m 51.87,51.35 -0.11,-0.19 a 8.86,8.86 0 0 1 -1.09,-4.4 v -6.57"
       fill="none"
       stroke="#1d1e21"
       stroke-linecap="round"
       stroke-linejoin="round"
       id="path1919" /><path
       d="m 31.86,40.19 v 6.57 a 8.86,8.86 0 0 1 -1.09,4.4 l -0.12,0.2"
       fill="none"
       stroke="#1d1e21"
       stroke-linecap="round"
       stroke-linejoin="round"
       id="path1921" /><path
       d="M 1.19,79.33 A 16.11,16.11 0 0 1 3.7,71.83"
       fill="none"
       stroke="#1d1e21"
       stroke-linecap="round"
       stroke-linejoin="round"
       id="path1923" /><path
       d="M 81.34,79.33 C 81,70.87 70.99,61.33 61.27,57.33 a 44.16,44.16 0 0 1 -4.64,-2.19"
       fill="none"
       stroke="#1d1e21"
       stroke-linecap="round"
       stroke-linejoin="round"
       id="path1925" /><path
       d="M 41.27,1.46 A 12.15,12.15 0 0 0 33.7,0.83 9.31,9.31 0 0 0 26.92,7.25 c -0.67,2.26 -1,4.64 -2.63,6.65 -3.17,3.22 -4.37,9.61 -0.13,13.77"
       fill="none"
       stroke="#1d1e21"
       stroke-linecap="round"
       stroke-linejoin="round"
       id="path1927" /><path
       d="m 27.76,22.21 c 0,0 3.58,-0.23 3.75,-6.07 0.17,-5.84 3.63,-8.49 9.76,-8.49"
       fill="none"
       stroke="#1d1e21"
       stroke-linecap="round"
       stroke-linejoin="round"
       id="path1929" /><path
       d="m 41.27,1.46 a 12.11,12.11 0 0 1 7.56,-0.63 9.31,9.31 0 0 1 6.78,6.42 c 0.67,2.26 1,4.64 2.63,6.65 3.17,3.22 4.38,9.6 0.13,13.77"
       fill="none"
       stroke="#1d1e21"
       stroke-linecap="round"
       stroke-linejoin="round"
       id="path1931" /><path
       d="M 54.77,22.21 C 54.77,22.21 51.19,22 51,16.14 50.81,10.28 47.37,7.65 41.25,7.65"
       fill="none"
       stroke="#1d1e21"
       stroke-linecap="round"
       stroke-linejoin="round"
       id="path1933" /><path
       d="m 25.63,29.88 a 5.8,5.8 0 0 0 4.08,6.35"
       fill="none"
       stroke="#1d1e21"
       stroke-linecap="round"
       stroke-linejoin="round"
       id="path1935" /><path
       d="m 56.9,29.9 a 5.78,5.78 0 0 1 -4,6.3"
       fill="none"
       stroke="#1d1e21"
       stroke-linecap="round"
       stroke-linejoin="round"
       id="path1937" /><path
       d="m 26.46,54.09 a 20,20 0 0 1 4.87,-4.23"
       fill="none"
       stroke="#1d1e21"
       stroke-linecap="round"
       stroke-linejoin="round"
       id="path1939" /><path
       d="m 38.68,58.62 c 1.48,1.09 2.59,1.87 2.59,1.87 l -3.87,4.4"
       fill="none"
       stroke="#1d1e21"
       stroke-linecap="round"
       stroke-linejoin="round"
       id="path1941" /><path
       d="m 30.66,51.37 a 2.21,2.21 0 0 0 0.31,0.89 23.92,23.92 0 0 0 4.16,3.68"
       fill="none"
       stroke="#1d1e21"
       stroke-linecap="round"
       stroke-linejoin="round"
       id="path1943" /><path
       d="m 51.87,51.37 a 2.11,2.11 0 0 1 -0.31,0.89 c -0.89,1.54 -10.29,8.23 -10.29,8.23 l 8,9.09 c 0,0 7,-9 7.38,-14.64 -1.54,-2.72 -5.47,-5.11 -5.47,-5.11 v 0"
       fill="none"
       stroke="#1d1e21"
       stroke-linecap="round"
       stroke-linejoin="round"
       id="path1945" /><line
       x1="35.939999"
       y1="71.230003"
       x2="34.380001"
       y2="69.120003"
       fill="none"
       stroke="#1d1e21"
       stroke-linecap="round"
       stroke-linejoin="round"
       id="line1947" /><polyline
       points="48.48 68.69 41.27 78.44 37.27 73.03"
       fill="none"
       stroke="#1d1e21"
       stroke-linecap="round"
       stroke-linejoin="round"
       id="polyline1949" /><path
       d="m 37.63,64.62 1.51,1.81 a 1,1 0 0 1 0.21,0.77 l -1.09,7.17"
       fill="none"
       stroke="#1d1e21"
       stroke-linecap="round"
       stroke-linejoin="round"
       id="path1951" /><path
       d="m 44.9,64.62 -1.5,1.81 a 1,1 0 0 0 -0.22,0.77 l 1.09,7.17"
       fill="none"
       stroke="#1d1e21"
       stroke-linecap="round"
       stroke-linejoin="round"
       id="path1953" /><line
       x1="39.34"
       y1="66.879997"
       x2="43.189999"
       y2="66.879997"
       fill="none"
       stroke="#1d1e21"
       stroke-linecap="round"
       stroke-linejoin="round"
       id="line1955" /><path
       d="m 27.15,55.34 h 10.69 v 13 H 27.15 A 2.28,2.28 0 0 1 24.87,66 v -8.38 a 2.28,2.28 0 0 1 2.28,-2.28 z"
       transform="rotate(-168.27,31.35674,61.823129)"
       fill="none"
       stroke="#1d1e21"
       stroke-linecap="round"
       stroke-linejoin="round"
       id="path1957" /><path
       d="m 26.33,54.16 c 0,0 -8,-1.2 -14.63,-10"
       fill="none"
       stroke="#1d1e21"
       stroke-linecap="round"
       stroke-linejoin="round"
       id="path1959" /><path
       d="m 23.69,66.86 c 0,0 -7.77,-2.06 -17.41,3.36"
       fill="none"
       stroke="#1d1e21"
       stroke-linecap="round"
       stroke-linejoin="round"
       id="path1961" /><rect
       x="4.2800002"
       y="41.34"
       width="4.7600002"
       height="30.709999"
       rx="1.64"
       fill="none"
       stroke="#1d1e21"
       stroke-linecap="round"
       stroke-linejoin="round"
       transform="rotate(-168.27,6.6575891,56.695254)"
       id="rect1963" /><path
       d="M 5.57,50.24 H 5.49 A 6.83,6.83 0 0 0 3,62.14"
       fill="none"
       stroke="#1d1e21"
       stroke-linecap="round"
       stroke-linejoin="round"
       id="path1965" /><line
       x1="35.049999"
       y1="60.830002"
       x2="28.870001"
       y2="59.540001"
       fill="none"
       stroke="#1d1e21"
       stroke-linecap="round"
       stroke-linejoin="round"
       id="line1967" /><line
       x1="34.349998"
       y1="64.209999"
       x2="28.16"
       y2="62.93"
       fill="none"
       stroke="#1d1e21"
       stroke-linecap="round"
       stroke-linejoin="round"
       id="line1969" /><path
       d="m 32.49,72.2 c 0.73,-1.48 1.18,-2.63 1.37,-3.14"
       fill="none"
       stroke="#1d1e21"
       stroke-linecap="round"
       stroke-linejoin="round"
       id="path1971" /><path
       d="m 28.18,67.86 c -0.19,0.46 -0.46,1.07 -0.8,1.77"
       fill="none"
       stroke="#1d1e21"
       stroke-linecap="round"
       stroke-linejoin="round"
       id="path1973" /><path
       d="m 19.2,79.35 c 0.29,-0.58 0.83,-0.63 1.11,-1.07 0.44,-0.69 -0.51,-1.29 0,-2.11 a 1.68,1.68 0 0 1 0.83,-0.7 1.16,1.16 0 0 0 0.66,-1.34 2,2 0 0 1 0.93,-2 c 0.39,-0.14 1.08,-0.21 1.06,-1.35 A 2.59,2.59 0 0 1 25,68.84 c 0,0 0.52,-0.38 1.52,0.3 a 46.87,46.87 0 0 0 5.85,3"
       fill="none"
       stroke="#1d1e21"
       stroke-linecap="round"
       stroke-linejoin="round"
       id="path1975" /><path
       d="m 33.34,70.49 1,0.17 a 3.47,3.47 0 0 1 3,2.58 c 0.41,1.37 1.63,4.8 2.56,5.64 a 5.57,5.57 0 0 0 0.67,0.45"
       fill="none"
       stroke="#1d1e21"
       stroke-linecap="round"
       stroke-linejoin="round"
       id="path1977" /></g></svg>
