<?xml version="1.0" encoding="UTF-8" standalone="no"?>
<svg
   id="b25111b9-59d7-4c3f-817f-4bbd1516dccd"
   data-name="Layer 1"
   viewBox="0 0 499.99999 499.99999"
   version="1.1"
   sodipodi:docname="1.svg"
   width="500"
   height="500"
   inkscape:version="1.2.2 (732a01da63, 2022-12-09)"
   xmlns:inkscape="http://www.inkscape.org/namespaces/inkscape"
   xmlns:sodipodi="http://sodipodi.sourceforge.net/DTD/sodipodi-0.dtd"
   xmlns="http://www.w3.org/2000/svg"
   xmlns:svg="http://www.w3.org/2000/svg">
  <defs
     id="defs109" />
  <sodipodi:namedview
     id="namedview107"
     pagecolor="#505050"
     bordercolor="#eeeeee"
     borderopacity="1"
     inkscape:showpageshadow="0"
     inkscape:pageopacity="0"
     inkscape:pagecheckerboard="0"
     inkscape:deskcolor="#505050"
     showgrid="false"
     inkscape:zoom="0.4151379"
     inkscape:cx="118.03307"
     inkscape:cy="55.403277"
     inkscape:window-width="1366"
     inkscape:window-height="705"
     inkscape:window-x="-8"
     inkscape:window-y="-8"
     inkscape:window-maximized="1"
     inkscape:current-layer="b25111b9-59d7-4c3f-817f-4bbd1516dccd" />
  <g
     id="g1000"
     transform="matrix(6.1835271,0,0,6.3242168,-1.64382e-5,0.00704332)">
    <path
       d="m 27.39,30.4 c -4.48,-1.12 -5.09,-6 -4.19,-8.62 a 2.08,2.08 0 0 1 1.9,-1.39 2,2 0 0 1 1.76,0.88 0.64,0.64 0 0 1 0.07,0.12 v 4.08 a 26.38,26.38 0 0 0 0.46,4.93 z"
       fill="#9e6840"
       id="path2" />
    <path
       d="m 53.93,21.39 v 4.08 a 26.4,26.4 0 0 1 -0.46,4.94 24.25,24.25 0 0 1 -2.66,7.36 c -0.3,0.53 -0.62,1.06 -1,1.58 v 0 c -2.16,3.24 -5.24,6.08 -9.41,6.08 -4.17,0 -7.21,-2.83 -9.4,-6.07 -0.35,-0.52 -0.68,-1.06 -1,-1.59 A 23.78,23.78 0 0 1 27.34,30.4 26.38,26.38 0 0 1 26.88,25.47 v -4.08 c 2.41,-2.5 2.64,-4.47 3.24,-7.73 a 6.1,6.1 0 0 1 4.14,-4.47 c 1.29,2 3.93,4.41 9.23,5.31 A 11.23,11.23 0 0 1 40.32,11 c 0.31,0.2 5.24,3.45 10,3.51 a 36.67,36.67 0 0 0 -0.64,-4.2 5.74,5.74 0 0 1 1.65,2.92 c 0.67,3.23 0.19,5.66 2.6,8.16 z"
       fill="#9e6840"
       id="path4" />
    <path
       d="m 53.48,30.4 v 0 a 26.4,26.4 0 0 0 0.46,-4.94 v -4.07 l 0.08,-0.12 a 2,2 0 0 1 2.11,-0.83 2.06,2.06 0 0 1 1.55,1.34 c 0.89,2.6 0.32,7.5 -4.2,8.62 z"
       fill="#9e6840"
       id="path6" />
    <path
       d="m 51.71,51.46 v 0 0 q -11.25,8.4 -22.51,0 v 0 A 8.06,8.06 0 0 0 29.99,50.32 8.83,8.83 0 0 0 31,45.94 v -6.58 c 2.16,3.24 5.23,6.08 9.4,6.08 4.17,0 7.25,-2.84 9.41,-6.08 v 6.58 a 8.83,8.83 0 0 0 1.09,4.39 7.15,7.15 0 0 0 0.81,1.13 z"
       fill="#9e6840"
       id="path8" />
    <path
       d="M 80.36,78.54 H 0.5 a 13.4,13.4 0 0 1 0.85,-4.08 22.48,22.48 0 0 1 3.22,-5.77 35.51,35.51 0 0 1 5.5,-5.77 40.62,40.62 0 0 1 8.87,-5.77 q 0.78,-0.37 1.56,-0.69 a 37.15,37.15 0 0 0 6.89,-3.59 24.73,24.73 0 0 0 7.46,4.28 16.7,16.7 0 0 0 11.16,0 24.89,24.89 0 0 0 7.47,-4.28 37.05,37.05 0 0 0 6.88,3.59 q 0.78,0.32 1.56,0.69 a 41.05,41.05 0 0 1 8.88,5.77 35.85,35.85 0 0 1 5.49,5.77 22.48,22.48 0 0 1 3.22,5.77 13.4,13.4 0 0 1 0.85,4.08 z"
       fill="#5eacff"
       id="path10" />
    <path
       d="M 80.36,78.54 H 0.5 a 13.4,13.4 0 0 1 0.85,-4.08 h 78.16 a 13.4,13.4 0 0 1 0.85,4.08 z"
       fill="#5eacff"
       id="path12" />
    <path
       d="M 79.51,74.46 H 1.35 a 22.48,22.48 0 0 1 3.22,-5.77 h 71.72 a 22.48,22.48 0 0 1 3.22,5.77 z"
       fill="#81c2fc"
       id="path14" />
    <path
       d="M 76.29,68.69 H 4.57 a 35.51,35.51 0 0 1 5.5,-5.77 H 70.8 a 35.85,35.85 0 0 1 5.49,5.77 z"
       fill="#5eacff"
       id="path16" />
    <path
       d="M 70.8,62.92 H 10.07 a 40.62,40.62 0 0 1 8.87,-5.77 h 15.91 a 16.7,16.7 0 0 0 11.16,0 h 15.91 a 41.05,41.05 0 0 1 8.88,5.77 z"
       fill="#81c2fc"
       id="path18" />
    <path
       d="M 61.92,57.15 H 46 a 24.89,24.89 0 0 0 7.47,-4.28 37.05,37.05 0 0 0 6.88,3.59 q 0.79,0.32 1.57,0.69 z"
       fill="#5eacff"
       id="path20" />
    <path
       d="M 34.85,57.15 H 18.94 q 0.78,-0.37 1.56,-0.69 a 37.15,37.15 0 0 0 6.89,-3.59 24.73,24.73 0 0 0 7.46,4.28 z"
       fill="#5eacff"
       id="path22" />
    <rect
       x="50.919998"
       y="64.400002"
       width="12.49"
       height="8.5799999"
       rx="0.49000001"
       fill="#f2f2f2"
       id="rect24" />
    <path
       d="M 43.54,14.5 C 38.24,13.6 35.6,11.2 34.31,9.19 34.17,8.99 34.06,8.79 33.95,8.6 A 6.59,6.59 0 0 1 33.33,7 5.89,5.89 0 0 1 33.27,4.6 5.17,5.17 0 0 1 33.82,3 a 4.08,4.08 0 0 1 1.64,-1.57 7.34,7.34 0 0 1 4.3,-0.93 11.43,11.43 0 0 1 1.82,0.34 9.91,9.91 0 0 1 5.7,3.73 v 0 a 13,13 0 0 1 1.83,3.71 c 0.19,0.62 0.37,1.27 0.53,2 a 36.67,36.67 0 0 1 0.64,4.2 c -4.72,-0.06 -9.65,-3.31 -10,-3.51 a 11.23,11.23 0 0 0 3.26,3.53 z"
       fill="#de684c"
       id="path26" />
    <path
       d="m 34.31,9.19 a 6.1,6.1 0 0 0 -4.14,4.47 c -0.6,3.26 -0.83,5.23 -3.24,7.73 A 0.64,0.64 0 0 0 26.86,21.27 2,2 0 0 0 25.1,20.39 C 25,8.94 31.54,5.33 33.27,4.57 A 5.89,5.89 0 0 0 33.33,7 6.59,6.59 0 0 0 34,8.6 c 0.06,0.19 0.17,0.4 0.31,0.59 z"
       fill="#de684c"
       id="path28" />
    <path
       d="m 56.12,20.44 a 2,2 0 0 0 -2.11,0.83 l -0.08,0.12 c -2.41,-2.5 -2,-4.93 -2.64,-8.17 A 5.74,5.74 0 0 0 49.64,10.3 C 49.48,9.59 49.3,8.94 49.11,8.3 A 13,13 0 0 0 47.28,4.59 c 2.26,0.69 8.32,3.65 8.84,15.85 z"
       fill="#de684c"
       id="path30" />
    <path
       d="M 53.48,52.87 A 24.89,24.89 0 0 1 46,57.15 16.7,16.7 0 0 1 34.84,57.15 24.73,24.73 0 0 1 27.38,52.87 15.1,15.1 0 0 0 29,51.61 v 0 0 l 0.1,-0.07 q 11.27,8.4 22.51,0 v 0 l 0.16,0.14 v 0 a 17.66,17.66 0 0 0 1.71,1.19 z"
       fill="#6a75cf"
       id="path32" />
    <path
       d="m 2.63,58.05 h 38.9 a 2.13,2.13 0 0 1 2.13,2.13 V 78.54 H 0.5 V 60.18 a 2.13,2.13 0 0 1 2.13,-2.13 z"
       fill="#cccaca"
       id="path34" />
    <circle
       cx="22.08"
       cy="72.190002"
       r="3.0799999"
       fill="#e0e0e0"
       id="circle36" />
    <path
       d="m 26,29.6 c -2.89,-1.79 -3.22,-5.67 -2.45,-7.89 a 2.06,2.06 0 0 1 1,-1.17 13.22,13.22 0 0 0 1.45,9.06 z"
       fill="#874527"
       id="path38" />
    <path
       d="m 39.52,45.39 c -3.71,-0.37 -6.49,-3 -8.49,-6 -0.35,-0.52 -0.68,-1.06 -1,-1.59 A 23.78,23.78 0 0 1 27.37,30.43 26.38,26.38 0 0 1 26.91,25.5 v -4.11 c 2.41,-2.5 2.64,-4.47 3.24,-7.73 a 6.1,6.1 0 0 1 4.14,-4.47 8.76,8.76 0 0 0 0.94,1.23 6.67,6.67 0 0 0 -3,3.48 41,41 0 0 0 -1.6,6.31 40.47,40.47 0 0 0 -0.63,7 c 0.05,6.63 2,14.05 9.52,18.18 z"
       fill="#874527"
       id="path40" />
    <path
       d="m 55.13,29.72 c 2.72,-4.74 1.14,-8.35 0.6,-9.33 a 2.3,2.3 0 0 1 0.39,0.05 2.06,2.06 0 0 1 1.55,1.34 C 58.45,24 58.09,28 55.13,29.72 Z"
       fill="#ce9c60"
       id="path42" />
    <path
       d="m 48,41.74 c -0.51,0.81 -6.22,9.48 -17,3.51 v -5.89 c 2,3 4.78,5.66 8.49,6 a 9.08,9.08 0 0 0 0.91,0 10.29,10.29 0 0 0 7.6,-3.62 z"
       fill="#874527"
       id="path44" />
    <path
       d="M 50.28,14.5 C 45.79,-0.45 35.46,1.5 35.46,1.5 a 7.34,7.34 0 0 1 4.3,-0.93 11.43,11.43 0 0 1 1.82,0.34 9.91,9.91 0 0 1 5.7,3.73 v 0 c 0.1,0.13 0.19,0.27 0.28,0.41 0.09,0.14 0.17,0.26 0.25,0.39 a 12,12 0 0 1 0.88,1.76 c 0,0.09 0.07,0.17 0.1,0.26 0.11,0.29 0.22,0.58 0.32,0.89 0.19,0.62 0.37,1.27 0.53,2 a 36.67,36.67 0 0 1 0.64,4.15 z"
       fill="#ee9c72"
       id="path46" />
    <path
       d="M 30.37,6.59 C 30.14,6.97 26.23,13.78 26.3,20.33 A 2,2 0 0 0 25.47,20.18 C 25.41,12.92 28,8.81 30.37,6.59 Z"
       fill="#d84d35"
       id="path48" />
    <path
       d="M 56.12,20.44 A 2.3,2.3 0 0 0 55.73,20.39 2.22,2.22 0 0 0 55.1,20.47 C 54.32,11.14 50.1,7.97 48.69,7.17 A 12,12 0 0 0 47.81,5.41 C 47.73,5.28 47.65,5.15 47.56,5.02 47.47,4.89 47.38,4.74 47.28,4.61 c 2.26,0.67 8.32,3.63 8.84,15.83 z"
       fill="#ee9c72"
       id="path50" />
    <path
       d="m 39,21.6 v 1 a 6.75,6.75 0 0 1 -1,3.61 5.22,5.22 0 0 1 -4.64,2.52 c -4.85,0 -5.62,-7.13 -5.62,-7.13 0,0 5.92,-4.22 11.26,0 z"
       fill="#dbf2fc"
       opacity="0.95"
       id="path52" />
    <path
       d="m 53.17,21.6 c 0,0 -0.78,7.13 -5.63,7.13 a 5.21,5.21 0 0 1 -4.63,-2.52 6.76,6.76 0 0 1 -1,-3.61 v -1 c 5.29,-4.22 11.26,0 11.26,0 z"
       fill="#dbf2fc"
       opacity="0.95"
       id="path54" />
    <path
       d="m 26.93,21.38 -0.07,-0.11 a 2.08,2.08 0 0 0 -3.66,0.51 c -0.91,2.6 -0.29,7.5 4.18,8.62"
       fill="none"
       stroke="#1d1e21"
       stroke-linecap="round"
       stroke-linejoin="round"
       id="path56" />
    <path
       d="m 53.93,21.27 v 4.2 a 25.05,25.05 0 0 1 -3.12,12.3 c -2.16,3.83 -5.54,7.67 -10.38,7.67 -4.84,0 -8.22,-3.84 -10.38,-7.67 a 25.05,25.05 0 0 1 -3.12,-12.3 v -4.15"
       fill="none"
       stroke="#1d1e21"
       stroke-linecap="round"
       stroke-linejoin="round"
       id="path58" />
    <path
       d="M 53.93,21.38 54,21.27 a 2.08,2.08 0 0 1 3.66,0.51 c 0.91,2.6 0.29,7.5 -4.18,8.62"
       fill="none"
       stroke="#1d1e21"
       stroke-linecap="round"
       stroke-linejoin="round"
       id="path60" />
    <path
       d="M 52,51.82 A 8.15,8.15 0 0 1 50.9,50.33 8.83,8.83 0 0 1 49.81,45.94 V 39.36"
       fill="none"
       stroke="#1d1e21"
       stroke-linecap="round"
       stroke-linejoin="round"
       id="path62" />
    <path
       d="m 31,39.36 v 6.58 a 8.83,8.83 0 0 1 -1.09,4.39 7.92,7.92 0 0 1 -1.05,1.43"
       fill="none"
       stroke="#1d1e21"
       stroke-linecap="round"
       stroke-linejoin="round"
       id="path64" />
    <path
       d="m 51.68,51.48 a 30.6,30.6 0 0 0 8.68,5 c 9.69,4 19.66,13.61 20,22.08"
       fill="none"
       stroke="#1d1e21"
       stroke-linecap="round"
       stroke-linejoin="round"
       id="path66" />
    <path
       d="m 17.28,58 a 33.64,33.64 0 0 1 3.22,-1.53 30.33,30.33 0 0 0 8.67,-5"
       fill="none"
       stroke="#1d1e21"
       stroke-linecap="round"
       stroke-linejoin="round"
       id="path68" />
    <path
       d="m 34,8.6 c 1.15,2.11 3.76,4.91 9.59,5.89 A 11.12,11.12 0 0 1 40.31,11 c 0,0 5.09,3.46 10,3.51 C 49.47,6.27 47,2.36 41.58,0.87 A 11.43,11.43 0 0 0 39.76,0.53 7.32,7.32 0 0 0 35.46,1.46 4.08,4.08 0 0 0 33.82,3 5.78,5.78 0 0 0 34,8.6 Z"
       fill="none"
       stroke="#1d1e21"
       stroke-linecap="round"
       stroke-linejoin="round"
       id="path70" />
    <path
       d="M 33.17,4.62 C 31.3,5.47 25,9.14 25.11,20.33"
       fill="none"
       stroke="#1d1e21"
       stroke-linecap="round"
       stroke-linejoin="round"
       id="path72" />
    <path
       d="m 47.47,4.67 c 2.39,0.78 8.13,3.9 8.64,15.7"
       fill="none"
       stroke="#1d1e21"
       stroke-linecap="round"
       stroke-linejoin="round"
       id="path74" />
    <path
       d="m 49.74,10.4 a 5.69,5.69 0 0 1 1.55,2.82 c 0.66,3.24 0.23,5.66 2.64,8.16"
       fill="none"
       stroke="#1d1e21"
       stroke-linecap="round"
       stroke-linejoin="round"
       id="path76" />
    <path
       d="m 34.26,9.21 a 6.06,6.06 0 0 0 -4.09,4.45 c -0.6,3.26 -0.83,5.22 -3.24,7.72"
       fill="none"
       stroke="#1d1e21"
       stroke-linecap="round"
       stroke-linejoin="round"
       id="path78" />
    <path
       d="m 29.17,51.49 q 11.27,8.4 22.51,0"
       fill="none"
       stroke="#1d1e21"
       stroke-linecap="round"
       stroke-linejoin="round"
       id="path80" />
    <path
       d="m 27.69,21.6 c 0,0 6,-4.22 11.26,0 v 1 a 6.75,6.75 0 0 1 -1,3.61 5.22,5.22 0 0 1 -4.64,2.52 c -4.84,0 -5.62,-7.13 -5.62,-7.13 z"
       fill="none"
       stroke="#1d1e21"
       stroke-linecap="round"
       stroke-linejoin="round"
       id="path82" />
    <line
       x1="38.950001"
       y1="21.6"
       x2="40.43"
       y2="21.6"
       fill="none"
       stroke="#1d1e21"
       stroke-linecap="round"
       stroke-linejoin="round"
       id="line84" />
    <path
       d="m 53.17,21.6 c 0,0 -6,-4.22 -11.26,0 v 1 a 6.75,6.75 0 0 0 1,3.61 5.22,5.22 0 0 0 4.64,2.52 c 4.84,0 5.62,-7.13 5.62,-7.13 z"
       fill="none"
       stroke="#1d1e21"
       stroke-linecap="round"
       stroke-linejoin="round"
       id="path86" />
    <line
       x1="41.91"
       y1="21.6"
       x2="40.43"
       y2="21.6"
       fill="none"
       stroke="#1d1e21"
       stroke-linecap="round"
       stroke-linejoin="round"
       id="line88" />
    <path
       d="m 42.21,58 q 5.64,-0.62 11.27,-5.15"
       fill="none"
       stroke="#1d1e21"
       stroke-linecap="round"
       stroke-linejoin="round"
       id="path90" />
    <path
       d="M 27.38,52.87 Q 33.1,57.46 38.8,58"
       fill="none"
       stroke="#1d1e21"
       stroke-linecap="round"
       stroke-linejoin="round"
       id="path92" />
    <polygon
       points="55.14,66.14 55.76,66.76 53.83,68.69 55.76,70.61 55.14,71.24 52.59,68.69 "
       fill="#1d1e21"
       id="polygon94" />
    <polygon
       points="60.51,68.69 58.58,66.76 59.2,66.14 61.75,68.69 59.2,71.24 58.58,70.61 "
       fill="#1d1e21"
       id="polygon96" />
    <rect
       x="56.73"
       y="66.050003"
       width="0.88"
       height="5.29"
       transform="rotate(-11.5,57.184146,68.70708)"
       fill="#1d1e21"
       id="rect98" />
    <rect
       x="50.919998"
       y="64.400002"
       width="12.49"
       height="8.5799999"
       rx="0.49000001"
       fill="none"
       stroke="#1d1e21"
       stroke-linecap="round"
       stroke-linejoin="round"
       id="rect100" />
    <path
       d="M 0.5,78.54 V 60.18 a 2.13,2.13 0 0 1 2.13,-2.13 h 38.9 a 2.13,2.13 0 0 1 2.13,2.13 v 18.36"
       fill="none"
       stroke="#1d1e21"
       stroke-linecap="round"
       stroke-linejoin="round"
       id="path102" />
    <circle
       cx="22.08"
       cy="72.190002"
       r="3.0799999"
       fill="none"
       stroke="#1d1e21"
       stroke-linecap="round"
       stroke-linejoin="round"
       id="circle104" />
  </g>
</svg>
