<?xml version="1.0" encoding="UTF-8" standalone="no"?>
<svg
   id="b25111b9-59d7-4c3f-817f-4bbd1516dccd"
   data-name="Layer 1"
   viewBox="0 0 499.99999 499.99999"
   version="1.1"
   sodipodi:docname="3.svg"
   width="500"
   height="500"
   inkscape:version="1.2.2 (732a01da63, 2022-12-09)"
   xml:space="preserve"
   xmlns:inkscape="http://www.inkscape.org/namespaces/inkscape"
   xmlns:sodipodi="http://sodipodi.sourceforge.net/DTD/sodipodi-0.dtd"
   xmlns="http://www.w3.org/2000/svg"
   xmlns:svg="http://www.w3.org/2000/svg"><defs
     id="defs109" /><sodipodi:namedview
     id="namedview107"
     pagecolor="#505050"
     bordercolor="#eeeeee"
     borderopacity="1"
     inkscape:showpageshadow="0"
     inkscape:pageopacity="0"
     inkscape:pagecheckerboard="0"
     inkscape:deskcolor="#505050"
     showgrid="false"
     inkscape:zoom="0.29354683"
     inkscape:cx="98.791734"
     inkscape:cy="429.23305"
     inkscape:window-width="1366"
     inkscape:window-height="705"
     inkscape:window-x="-8"
     inkscape:window-y="-8"
     inkscape:window-maximized="1"
     inkscape:current-layer="b25111b9-59d7-4c3f-817f-4bbd1516dccd" /><g
     id="g2669"
     transform="matrix(6.1349694,0,0,6.0355419,4.6925731e-5,-0.10504168)"><path
       d="M 51.16,53.38 50,54.9 v 0 q -9.27,7.17 -18.53,0 v 0 l -1.1,-1.5 v 0 a 4.22,4.22 0 0 0 0.84,-1.91 9.51,9.51 0 0 0 0.13,-1.6 v -5.6 A 12,12 0 0 0 32.86,46 c 0,0 3.81,4 7.9,4 4.09,0 7.92,-4 7.92,-4 a 10.87,10.87 0 0 0 1.48,-1.75 v 5.62 a 8.55,8.55 0 0 0 0.32,2.25 3.37,3.37 0 0 0 0.65,1.26 z"
       fill="#bf8f68"
       id="path2520" /><path
       d="M 81,82.35 H 0.5 c 0,-8.69 10.16,-18.72 20,-22.85 A 43.82,43.82 0 0 0 25.63,57 c 0.47,-0.27 0.89,-0.53 1.28,-0.79 h 0.05 l -0.64,3.72 14.43,7.68 14.43,-7.71 -0.63,-3.7 0.1,0.06 c 0.37,0.24 0.77,0.49 1.2,0.74 A 43.82,43.82 0 0 0 61,59.5 c 9.82,4.13 20,14.16 20,22.85 z"
       fill="#ef3b46"
       id="path2522" /><path
       d="m 57.32,31.79 a 5.61,5.61 0 0 1 -3.52,2.52 v 0 a 26.94,26.94 0 0 0 0.45,-4.91 v -4.11 l 0.07,-0.11 a 2.08,2.08 0 0 1 3.36,-0.06 1.77,1.77 0 0 1 0.3,0.56 7.55,7.55 0 0 1 -0.66,6.11 z"
       fill="#bf8f68"
       id="path2524" /><path
       d="m 50.61,37.71 a 0.79,0.79 0 0 1 -0.89,0.34 4.71,4.71 0 0 1 -1.3,-0.59 4.29,4.29 0 0 0 -2.74,-0.69 c -1.21,0.12 -3,0.25 -4.92,0.25 -1.92,0 -3.71,-0.13 -4.93,-0.25 a 4.28,4.28 0 0 0 -2.73,0.69 4.71,4.71 0 0 1 -1.3,0.59 0.79,0.79 0 0 1 -0.89,-0.34 c -1.4,-2.1 -3.65,-9 -3.65,-9 v 0.64 a 26.83,26.83 0 0 0 0.45,4.9 v 0 a 28.7,28.7 0 0 0 1.62,6.06 18.14,18.14 0 0 0 2,3.87 12,12 0 0 0 1.53,1.82 c 0,0 3.81,4 7.9,4 4.09,0 7.92,-4 7.92,-4 a 10.87,10.87 0 0 0 1.48,-1.75 18.09,18.09 0 0 0 2,-3.87 28.7,28.7 0 0 0 1.62,-6 v 0 a 26.94,26.94 0 0 0 0.45,-4.91 v -0.64 c 0,0 -2.23,6.78 -3.62,8.88 z m -4.3,2.41 c -0.34,2.33 -1.74,3.82 -2.75,3.82 -1.24,0 -1.39,-1.12 -2.8,-1.12 -1.41,0 -1.56,1.12 -2.76,1.12 -1,0 -2.41,-1.49 -2.75,-3.82 a 1.2,1.2 0 0 1 1.45,-1.3 23,23 0 0 0 8.19,0 1.2,1.2 0 0 1 1.42,1.3 z"
       fill="#de684c"
       id="path2526" /><path
       d="m 27.71,34.28 v 0 a 5.62,5.62 0 0 1 -3,-1.87 A 7,7 0 0 1 23.17,28 v 0 a 7,7 0 0 1 0.36,-2.29 2.08,2.08 0 0 1 3.66,-0.5 l 0.07,0.11 v 4.09 a 26.83,26.83 0 0 0 0.45,4.87 z"
       fill="#bf8f68"
       id="path2528" /><path
       d="m 46.31,40.12 c -0.34,2.33 -1.74,3.82 -2.75,3.82 -1.24,0 -1.39,-1.12 -2.8,-1.12 -1.41,0 -1.56,1.12 -2.76,1.12 -1,0 -2.41,-1.49 -2.75,-3.82 a 1.2,1.2 0 0 1 1.45,-1.3 23,23 0 0 0 8.19,0 1.2,1.2 0 0 1 1.42,1.3 z"
       fill="#bf8f68"
       id="path2530" /><path
       d="m 57.73,24.84 v 0.28 a 2.08,2.08 0 0 0 -3.36,0.06 l -0.07,0.11 c -2,-1.65 -3.56,-4.08 -3.92,-8.69 -0.36,-4.61 -5.82,-4.78 -5.82,-4.78 h -5 c -3.1,0 -6.6,0.15 -7.32,5.9 a 9.34,9.34 0 0 1 -5,7.55 v 0 l -0.07,-0.11 a 2.08,2.08 0 0 0 -3.66,0.5 7,7 0 0 0 -0.34,2.34 v -0.08 a 8,8 0 0 1 1,-7.42 c -2.67,-8.43 5,-12 5,-12 A 9.1,9.1 0 0 1 35.28,1 c 5.78,-2 9.89,2.84 9.89,2.84 0,0 4.73,-1.39 5,3.69 5.7,0.08 6.64,5.48 5.92,9.32 a 11.35,11.35 0 0 1 1.64,7.99 z"
       fill="#de684c"
       id="path2532" /><path
       d="m 54.26,25.29 v 3.45 c 0,0 -2.26,6.87 -3.65,9 a 0.79,0.79 0 0 1 -0.89,0.34 4.71,4.71 0 0 1 -1.3,-0.59 4.29,4.29 0 0 0 -2.74,-0.69 c -1.21,0.12 -3,0.25 -4.92,0.25 -1.92,0 -3.71,-0.13 -4.93,-0.25 a 4.28,4.28 0 0 0 -2.73,0.69 4.71,4.71 0 0 1 -1.3,0.59 0.79,0.79 0 0 1 -0.89,-0.34 c -1.4,-2.1 -3.65,-9 -3.65,-9 v -3.47 a 9.34,9.34 0 0 0 5,-7.55 c 0.72,-5.75 4.22,-5.9 7.32,-5.9 h 5 c 0,0 5.42,0.18 5.76,4.78 0.34,4.6 1.91,7.04 3.92,8.69 z"
       fill="#bf8f68"
       id="path2534" /><path
       d="m 29.33,40.37 v 0 A 5.53,5.53 0 0 1 26.44,37 C 24.88,35.81 24.69,33.34 24.67,32.52 V 32.4 a 5.62,5.62 0 0 0 3,1.87 28.7,28.7 0 0 0 1.66,6.1 z"
       fill="#de684c"
       id="path2536" /><path
       d="m 57.32,31.79 v 0.3 c 0,1 -0.24,3.36 -1.42,4.61 -0.73,3.63 -3,3.72 -3.69,3.65 v 0 a 28.7,28.7 0 0 0 1.62,-6 5.61,5.61 0 0 0 3.49,-2.56 z"
       fill="#de684c"
       id="path2538" /><path
       d="m 53.51,50.17 -2.35,3.21 v 0 a 3.37,3.37 0 0 1 -0.65,-1.26 8.55,8.55 0 0 1 -0.32,-2.25 v -1.54 z"
       fill="#272c35"
       id="path2540" /><polygon
       points="53.51,50.17 54.55,56.2 55.18,59.9 40.75,67.58 50.04,54.9 51.16,53.38 "
       fill="#313742"
       id="polygon2542" /><polygon
       points="30.35,53.39 31.45,54.89 40.75,67.58 26.32,59.9 26.96,56.18 27.99,50.17 "
       fill="#313742"
       id="polygon2544" /><path
       d="m 31.36,48.32 v 1.52 a 9.51,9.51 0 0 1 -0.13,1.6 4.22,4.22 0 0 1 -0.84,1.91 v 0 L 28,50.17 31.35,48.33 Z"
       fill="#272c35"
       id="path2546" /><path
       d="m 50,54.9 -9.25,12.68 -9.3,-12.69 v 0 q 9.26,7.22 18.53,0 z"
       fill="#ffffff"
       id="path2548" /><circle
       cx="56.07"
       cy="75.440002"
       r="6.9200001"
       fill="#ffffff"
       id="circle2550" /><polygon
       points="57.5,79.63 57.44,77.65 59.18,78.59 60.42,76.3 58.68,75.36 60.36,74.32 58.99,72.11 57.31,73.14 57.25,71.17 54.65,71.24 54.71,73.22 52.97,72.28 51.73,74.57 53.47,75.51 51.79,76.55 53.16,78.77 54.84,77.73 54.9,79.7 "
       fill="#5faafd"
       id="polygon2552" /><path
       d="m 48.38,46.27 c -0.27,0.44 -6.17,9.78 -17,3.92 0,-0.11 0,-0.23 0,-0.35 v -5.6 A 12,12 0 0 0 32.86,46 c 0,0 3.81,4 7.9,4 3.41,0 6.65,-2.8 7.62,-3.73 z"
       fill="#b0693f"
       id="path2554" /><path
       d="m 27,56.18 -0.62,3.59 a 18.68,18.68 0 0 1 -5.85,3.84 C 7.11,70.47 4.66,80.2 4.28,82.35 H 0.5 c 0,-8.69 10.16,-18.72 20,-22.85 A 43.82,43.82 0 0 0 25.63,57 c 0.47,-0.27 0.89,-0.53 1.28,-0.79 z"
       fill="#ec292e"
       id="path2556" /><path
       d="m 57.32,31.79 a 5.61,5.61 0 0 1 -3.52,2.52 v 0 l 0.12,-0.71 c 4.53,-1.09 3.18,-9 3.18,-9 a 0.94,0.94 0 0 1 0.18,0.12 0.69,0.69 0 0 1 0.13,0.11 1.5,1.5 0 0 1 0.27,0.29 1.77,1.77 0 0 1 0.3,0.56 7.55,7.55 0 0 1 -0.66,6.11 z"
       fill="#d2b187"
       id="path2558" /><path
       d="m 27.71,34.28 v 0 a 5.62,5.62 0 0 1 -3,-1.87 A 7,7 0 0 1 23.17,28 v 0 a 7,7 0 0 1 0.36,-2.29 2,2 0 0 1 0.75,-1 c 0,0 -1.28,6.16 3.38,9.29 a 2.93,2.93 0 0 0 0.05,0.28 z"
       fill="#b0693f"
       id="path2560" /><path
       d="M 30.66,10.18 C 26.33,11.82 24.3,17 25.55,21.1 a 4,4 0 0 0 -1,3.42 l -0.27,0.16 a 2,2 0 0 0 -0.75,1 7,7 0 0 0 -0.36,2.32 v -0.08 a 8,8 0 0 1 1,-7.42 c -2.67,-8.43 5,-12 5,-12 a 9.1,9.1 0 0 1 6.11,-7.5 7.23,7.23 0 0 1 1,-0.26 C 32.07,2.28 30.3,7 30.66,10.18 Z"
       fill="#d74932"
       id="path2562" /><path
       d="m 57.32,24.9 v 0.28 a 1.5,1.5 0 0 0 -0.27,-0.29 0.69,0.69 0 0 0 -0.13,-0.11 l -0.18,-0.12 a 1.87,1.87 0 0 0 -0.32,-0.15 h -0.07 a 2.37,2.37 0 0 0 -0.36,-0.09 c 0,0 0.14,-5 -1.67,-7.12 1.86,-6.28 -4.47,-9.68 -4.47,-9.68 5.7,0.08 6.64,5.48 5.92,9.32 a 11.35,11.35 0 0 1 1.55,7.96 z"
       fill="#e88763"
       id="path2564" /><path
       d="m 29.41,27.85 a 36.81,36.81 0 0 0 3.92,9.67 4.54,4.54 0 0 1 -1.2,0.53 0.79,0.79 0 0 1 -0.89,-0.34 c -1.4,-2.1 -3.65,-9 -3.65,-9 v -3.44 a 9.34,9.34 0 0 0 5,-7.55 c 0.49,-3.95 2.3,-5.26 4.39,-5.69 a 10.15,10.15 0 0 0 -2.17,5.52 c -0.1,3.22 -2.22,7.59 -4.81,9.1 a 1.11,1.11 0 0 0 -0.59,1.2 z"
       fill="#b0693f"
       id="path2566" /><path
       d="m 29.33,40.37 v 0 A 5.53,5.53 0 0 1 26.44,37 C 24.88,35.81 24.69,33.34 24.67,32.52 V 32.4 a 5.62,5.62 0 0 0 3,1.87 28.7,28.7 0 0 0 1.66,6.1 z"
       fill="#d74932"
       id="path2568" /><polygon
       points="57.5,79.63 57.44,77.65 59.18,78.59 60.42,76.3 58.68,75.36 60.36,74.32 58.99,72.11 57.31,73.14 57.25,71.17 54.65,71.24 54.71,73.22 52.97,72.28 51.73,74.57 53.47,75.51 51.79,76.55 53.16,78.77 54.84,77.73 54.9,79.7 "
       fill="none"
       stroke="#1d1e21"
       stroke-linecap="round"
       stroke-linejoin="round"
       id="polygon2570" /><path
       d="m 27.25,25.29 -0.07,-0.11 a 2.08,2.08 0 0 0 -3.66,0.5 c -0.9,2.61 -0.28,7.51 4.19,8.63"
       fill="none"
       stroke="#1d1e21"
       stroke-linecap="round"
       stroke-linejoin="round"
       id="path2572" /><path
       d="m 27.71,34.28 a 25.9,25.9 0 0 1 -0.46,-4.9 v -4"
       fill="none"
       stroke="#1d1e21"
       stroke-linecap="round"
       stroke-linejoin="round"
       id="path2574" /><path
       d="m 54.26,25.19 v 4.19 a 26.85,26.85 0 0 1 -0.45,4.91"
       fill="none"
       stroke="#1d1e21"
       stroke-linecap="round"
       stroke-linejoin="round"
       id="path2576" /><path
       d="m 54.26,25.29 0.07,-0.11 a 2.08,2.08 0 0 1 3.66,0.5 c 0.9,2.61 0.29,7.51 -4.19,8.63"
       fill="none"
       stroke="#1d1e21"
       stroke-linecap="round"
       stroke-linejoin="round"
       id="path2578" /><path
       d="M 51.13,53.35 A 3.31,3.31 0 0 1 50.47,52.09 9,9 0 0 1 50.16,49.85 V 44.22"
       fill="none"
       stroke="#1d1e21"
       stroke-linecap="round"
       stroke-linejoin="round"
       id="path2580" /><path
       d="M 81,82.35 C 81,73.66 70.84,63.63 61,59.5 A 43.82,43.82 0 0 1 55.85,57 c -0.43,-0.25 -0.83,-0.5 -1.2,-0.73"
       fill="none"
       stroke="#1d1e21"
       stroke-linecap="round"
       stroke-linejoin="round"
       id="path2582" /><path
       d="m 26.91,56.22 c -0.39,0.25 -0.82,0.51 -1.28,0.78 a 43.82,43.82 0 0 1 -5.11,2.5 C 10.66,63.63 0.5,73.66 0.5,82.35"
       fill="none"
       stroke="#1d1e21"
       stroke-linecap="round"
       stroke-linejoin="round"
       id="path2584" /><path
       d="m 31.35,44.22 v 5.63 a 10.54,10.54 0 0 1 -0.12,1.59 4.17,4.17 0 0 1 -0.84,1.91"
       fill="none"
       stroke="#1d1e21"
       stroke-linecap="round"
       stroke-linejoin="round"
       id="path2586" /><path
       d="m 27.25,28.74 c 0,0 2.26,6.88 3.66,9 a 0.79,0.79 0 0 0 0.88,0.33 4.78,4.78 0 0 0 1.31,-0.59 4.34,4.34 0 0 1 2.73,-0.69 c 1.22,0.12 3,0.25 4.93,0.25"
       fill="none"
       stroke="#1d1e21"
       stroke-linecap="round"
       stroke-linejoin="round"
       id="path2588" /><path
       d="m 54.26,28.74 c 0,0 -2.26,6.88 -3.65,9 a 0.8,0.8 0 0 1 -0.89,0.33 4.78,4.78 0 0 1 -1.31,-0.59 4.31,4.31 0 0 0 -2.73,-0.69 c -1.21,0.12 -3,0.25 -4.92,0.25"
       fill="none"
       stroke="#1d1e21"
       stroke-linecap="round"
       stroke-linejoin="round"
       id="path2590" /><path
       d="m 40.76,42.82 c 1.41,0 1.56,1.12 2.8,1.12 1,0 2.4,-1.49 2.75,-3.82 a 1.19,1.19 0 0 0 -1.46,-1.29 23.47,23.47 0 0 1 -8.19,0 1.19,1.19 0 0 0 -1.45,1.29 c 0.34,2.33 1.74,3.82 2.75,3.82 1.24,0 1.38,-1.12 2.8,-1.12"
       fill="none"
       stroke="#1d1e21"
       stroke-linecap="round"
       stroke-linejoin="round"
       id="path2592" /><path
       d="m 27.71,34.31 c 0,0 1,7.77 5.15,11.68 0,0 3.81,4 7.9,4"
       fill="none"
       stroke="#1d1e21"
       stroke-linecap="round"
       stroke-linejoin="round"
       id="path2594" /><path
       d="m 40.76,50 c 4.08,0 7.92,-4 7.92,-4 4.11,-3.91 5.12,-11.66 5.12,-11.66"
       fill="none"
       stroke="#1d1e21"
       stroke-linecap="round"
       stroke-linejoin="round"
       id="path2596" /><path
       d="m 23.13,27.89 a 8,8 0 0 1 1,-7.41 c -2.67,-8.43 5,-12 5,-12 A 9.11,9.11 0 0 1 35.28,1 c 5.77,-2 9.89,2.84 9.89,2.84 0,0 4.73,-1.39 5,3.7 5.7,0.07 6.64,5.47 5.92,9.31 a 11.36,11.36 0 0 1 1.59,8"
       fill="none"
       stroke="#1d1e21"
       stroke-linecap="round"
       stroke-linejoin="round"
       id="path2598" /><path
       d="m 27.25,25.27 a 9.34,9.34 0 0 0 5,-7.55 c 0.72,-5.75 4.22,-5.9 7.32,-5.9 h 5 c 0,0 5.43,0.18 5.77,4.79 0.34,4.61 1.91,7 3.92,8.68"
       fill="none"
       stroke="#1d1e21"
       stroke-linecap="round"
       stroke-linejoin="round"
       id="path2600" /><path
       d="m 24.67,32.56 c 0,0.82 0.21,3.29 1.76,4.48 a 5.51,5.51 0 0 0 2.88,3.32"
       fill="none"
       stroke="#1d1e21"
       stroke-linecap="round"
       stroke-linejoin="round"
       id="path2602" /><path
       d="m 57.32,32.09 c 0,1 -0.24,3.36 -1.42,4.61 -0.73,3.64 -3,3.72 -3.7,3.65"
       fill="none"
       stroke="#1d1e21"
       stroke-linecap="round"
       stroke-linejoin="round"
       id="path2604" /><polyline
       points="53.51 50.17 55.18 59.91 40.74 67.59 53.51 50.17 50.16 48.33"
       fill="none"
       stroke="#1d1e21"
       stroke-linecap="round"
       stroke-linejoin="round"
       id="polyline2606" /><polyline
       points="27.99 50.17 26.32 59.91 40.76 67.59 27.99 50.17 31.34 48.33"
       fill="none"
       stroke="#1d1e21"
       stroke-linecap="round"
       stroke-linejoin="round"
       id="polyline2608" /><path
       d="m 31.47,54.9 q 9.26,7.22 18.53,0"
       fill="none"
       stroke="#1d1e21"
       stroke-linecap="round"
       stroke-linejoin="round"
       id="path2610" /><line
       x1="40.759998"
       y1="67.589996"
       x2="40.759998"
       y2="82.349998"
       fill="none"
       stroke="#1d1e21"
       stroke-linecap="round"
       stroke-linejoin="round"
       id="line2612" /><circle
       cx="56.07"
       cy="75.440002"
       r="6.9200001"
       fill="none"
       stroke="#1d1e21"
       stroke-linecap="round"
       stroke-linejoin="round"
       id="circle2614" /></g></svg>
