<?xml version="1.0" encoding="UTF-8" standalone="no"?>
<svg
   id="b25111b9-59d7-4c3f-817f-4bbd1516dccd"
   data-name="Layer 1"
   viewBox="0 0 499.99999 499.99999"
   version="1.1"
   sodipodi:docname="4.svg"
   width="500"
   height="500"
   inkscape:version="1.2.2 (732a01da63, 2022-12-09)"
   xml:space="preserve"
   xmlns:inkscape="http://www.inkscape.org/namespaces/inkscape"
   xmlns:sodipodi="http://sodipodi.sourceforge.net/DTD/sodipodi-0.dtd"
   xmlns="http://www.w3.org/2000/svg"
   xmlns:svg="http://www.w3.org/2000/svg"><defs
     id="defs109" /><sodipodi:namedview
     id="namedview107"
     pagecolor="#505050"
     bordercolor="#eeeeee"
     borderopacity="1"
     inkscape:showpageshadow="0"
     inkscape:pageopacity="0"
     inkscape:pagecheckerboard="0"
     inkscape:deskcolor="#505050"
     showgrid="false"
     inkscape:zoom="0.4151379"
     inkscape:cx="-150.55238"
     inkscape:cy="380.59642"
     inkscape:window-width="1366"
     inkscape:window-height="705"
     inkscape:window-x="-8"
     inkscape:window-y="-8"
     inkscape:window-maximized="1"
     inkscape:current-layer="b25111b9-59d7-4c3f-817f-4bbd1516dccd" /><g
     id="g2869"
     transform="matrix(6.3694265,0,0,6.3023826,25.000009,-0.03102618)"><path
       d="M 48.81,21.93 V 25.7 A 25,25 0 0 1 45.69,38 22.53,22.53 0 0 1 43.56,41.17 v 0 c -2,2.54 -4.77,4.51 -8.24,4.51 -3.47,0 -6.18,-2 -8.24,-4.51 A 21.77,21.77 0 0 1 24.93,38 C 24.75,37.68 24.58,37.36 24.42,37 A 23.79,23.79 0 0 1 22.27,30.6 26.22,26.22 0 0 1 21.81,25.67 V 24 A 19.41,19.41 0 0 1 29.07,16.87 39.68,39.68 0 0 0 37.88,10 c 0,0 -0.3,5.34 -3.11,7.3 3.65,0 5.82,-5.51 5.82,-5.51 a 24.57,24.57 0 0 0 8.22,10.14 z"
       fill="#ffdebc"
       id="path2723" /><path
       d="m 43.58,48.08 a 63.16,63.16 0 0 1 -16.54,0 v -6.91 c 2.06,2.54 4.77,4.51 8.24,4.51 3.47,0 6.19,-2 8.24,-4.51 z"
       fill="#ffdebc"
       id="path2725" /><path
       d="M 70.15,78.77 H 0.5 l 0.26,-3.41 c 0.91,-9.69 9.67,-15.87 15.9,-19 A 27.82,27.82 0 0 0 20,65.73 c 0,0 5.47,-2 6.72,-12.28 1.48,0.75 4.14,1.62 8.59,1.62 7.84,0 10.17,-2.7 10.17,-2.7 v 0 a 12,12 0 0 0 3.64,2 c 4.7,1.53 19.56,8.2 20.76,21 z"
       fill="#afc3f5"
       id="path2727" /><path
       d="m 27.07,41.17 v 6.91 0.3 a 8.72,8.72 0 0 1 -0.06,1 35.21,35.21 0 0 1 -0.26,4.05 C 25.47,63.77 20,65.73 20,65.73 a 27.82,27.82 0 0 1 -3.34,-9.32 15.87,15.87 0 0 1 0.05,-5.28 5.51,5.51 0 0 1 -4.11,2.44 C 14,43.41 19.89,38.77 23.92,37.21 l 0.5,-0.18 c 0.16,0.33 0.33,0.65 0.51,1 a 21.77,21.77 0 0 0 2.14,3.14 z"
       fill="#da4530"
       id="path2729" /><path
       d="m 45.48,52.36 v 0 c 0,0 -2.33,2.7 -10.17,2.7 -4.45,0 -7.11,-0.87 -8.59,-1.62 A 35.21,35.21 0 0 0 27,49.4 a 8.72,8.72 0 0 0 0.06,-1 v -0.3 a 63.16,63.16 0 0 0 16.54,0 l 0.9,-0.12 z"
       fill="#afc3f5"
       id="path2731" /><path
       d="M 67,55.52 66.49,78.77 H 37 l 0.52,-23.9 a 1.38,1.38 0 0 1 1.42,-1.36 l 26.7,0.58 A 1.4,1.4 0 0 1 67,55.52 Z"
       fill="#f2e8d7"
       id="path2733" /><path
       d="M 63.64,58.31 63.19,78.77 H 40.27 l 0.45,-21 A 1.26,1.26 0 0 1 42,56.58 L 62.41,57 a 1.26,1.26 0 0 1 1.23,1.31 z"
       fill="#ffffff"
       id="path2735" /><path
       d="m 58.51,53 -4.29,-0.1 a 2,2 0 0 0 -3.86,-0.08 l -4.29,-0.09 a 0.12,0.12 0 0 0 -0.13,0.12 L 45.87,56 a 2.26,2.26 0 0 0 2.21,2.32 l 8.18,0.17 a 2.26,2.26 0 0 0 2.31,-2.21 l 0.07,-3.21 A 0.13,0.13 0 0 0 58.51,53 Z m -6.26,0.64 a 0.63,0.63 0 0 1 -0.63,-0.63 0.64,0.64 0 0 1 0.63,-0.63 0.63,0.63 0 0 1 0.63,0.63 0.63,0.63 0 0 1 -0.63,0.61 z"
       fill="#e0e0e0"
       id="path2737" /><rect
       x="42.880001"
       y="66.889999"
       width="2.55"
       height="2.8599999"
       transform="rotate(1.44,44.237439,68.683756)"
       fill="#b7ce59"
       id="rect2739" /><rect
       x="46.639999"
       y="62.970001"
       width="2.55"
       height="6.8699999"
       transform="rotate(1.44,48.191103,66.644424)"
       fill="#b7ce59"
       id="rect2741" /><rect
       x="50.369999"
       y="61.049999"
       width="2.55"
       height="8.8800001"
       transform="rotate(1.44,51.761901,65.803691)"
       fill="#b7ce59"
       id="rect2743" /><path
       d="m 64.76,77.4 -2,1.37 h -5.12 c 2.21,-1.06 5,-2.34 6.23,-2.93 a 0.84,0.84 0 0 1 0.38,-0.08 0.87,0.87 0 0 1 0.75,0.41 0.9,0.9 0 0 1 -0.24,1.23 z"
       fill="#ffdebc"
       id="path2745" /><path
       d="m 64.59,74 c -1.65,1 -5.76,3.52 -8,4.76 H 42.36 a 17.21,17.21 0 0 0 1.43,-3.2 c 0.6,-2 3.57,-5.52 4.55,-6.41 A 8.64,8.64 0 0 0 50,66.9 0.26,0.26 0 0 1 50.42,66.84 2.36,2.36 0 0 1 51,68.63 c 0,1.51 -1.25,3 -2.08,4 a 9.7,9.7 0 0 0 -1.25,2.19 0.36,0.36 0 0 0 0.47,0.47 19.48,19.48 0 0 0 4.23,-2.37 c 1.2,-1 6.86,-3.65 8.84,-4.54 a 0.85,0.85 0 0 1 0.35,-0.08 0.87,0.87 0 0 1 0.72,0.42 0.84,0.84 0 0 1 -0.28,1.15 c -1.88,1.26 -7.26,4.91 -8.82,6.6 a 0.23,0.23 0 0 0 -0.07,0.17 0.27,0.27 0 0 0 0.06,0.16 0.25,0.25 0 0 0 0.32,0 c 2.68,-1.64 8.35,-3.58 10.31,-4.36 a 0.86,0.86 0 0 1 1.06,0.37 0.85,0.85 0 0 1 -0.27,1.19 z"
       fill="#ffdebc"
       id="path2747" /><path
       d="m 49.61,35.73 a 8.21,8.21 0 0 0 0,-3.61 c 0,0 -1.5,6.35 -6.1,9.05 A 22.53,22.53 0 0 0 45.69,38 25,25 0 0 0 48.81,25.7 V 21.93 A 24.57,24.57 0 0 1 40.59,11.74 c 0,0 -2.17,5.51 -5.82,5.51 2.81,-2 3.11,-7.3 3.11,-7.3 A 39.68,39.68 0 0 1 29.07,16.86 19.41,19.41 0 0 0 21.81,24 v 1.7 a 26.22,26.22 0 0 0 0.46,4.93 23.79,23.79 0 0 0 2.15,6.37 l -0.5,0.18 a 17.88,17.88 0 0 1 -1.23,-2.73 13.51,13.51 0 0 1 -0.34,2.61 C 12.15,27.32 14.63,14.57 19.35,7.5 a 13.69,13.69 0 0 1 9.45,-5.6 9.5,9.5 0 0 1 4.62,0.42 c 0,0 2.9,-2.59 8,-1.59 7.94,1.56 21.97,16.37 8.19,35 z"
       fill="#da4530"
       id="path2749" /><path
       d="M 35,45.67 H 34.39 A 7.58,7.58 0 0 1 33.2,45.46 l -0.51,-0.14 a 0.45,0.45 0 0 1 -0.11,0 l -0.47,-0.16 c -0.33,-0.13 -0.65,-0.28 -1,-0.44 l -0.47,-0.26 a 13.47,13.47 0 0 1 -3.61,-3.22 c -0.21,-0.25 -0.41,-0.51 -0.61,-0.78 -0.2,-0.27 -0.31,-0.43 -0.45,-0.65 -0.14,-0.22 -0.48,-0.73 -0.7,-1.1 0,0 0,0 0,0 -0.14,-0.2 -0.25,-0.41 -0.37,-0.62 -0.12,-0.21 -0.35,-0.64 -0.51,-1 a 23.79,23.79 0 0 1 -2.15,-6.4 26.22,26.22 0 0 1 -0.46,-4.93 V 24 A 18.8,18.8 0 0 1 27,18.21 c -1.59,6.87 -3.19,20.94 8,27.46 z"
       fill="#ffc98b"
       id="path2751" /><path
       d="m 40,44.36 a 17.36,17.36 0 0 1 -7.17,4.21 H 32.6 L 30.19,48.42 H 29.7 l -1.06,-0.11 c -0.53,0 -1.07,-0.11 -1.6,-0.18 v -6.91 a 13.47,13.47 0 0 0 3.61,3.22 l 0.47,0.26 c 0.32,0.16 0.64,0.31 1,0.44 l 0.47,0.16 a 0.45,0.45 0 0 0 0.11,0 3.23,3.23 0 0 0 0.51,0.14 7.58,7.58 0 0 0 1.19,0.21 6,6 0 0 0 0.61,0 h 0.3 A 9,9 0 0 0 40,44.36 Z"
       fill="#ffc98b"
       id="path2753" /><path
       d="M 20,65.72 A 14.11,14.11 0 0 1 16,59.48 C 10.34,62.09 2.91,69.48 2.77,78.77 H 0.5 l 0.26,-3.41 c 0.91,-9.69 9.67,-15.87 15.9,-19 A 28.1,28.1 0 0 0 20,65.72 Z"
       fill="#a1b4f2"
       id="path2755" /><path
       d="m 25.31,38.64 c -2.28,1 -8.22,4.56 -10.37,14.17 A 6.45,6.45 0 0 1 12.6,53.57 C 14,43.41 19.89,38.77 23.92,37.21 l 0.5,-0.18 c 0.16,0.33 0.33,0.65 0.51,1 0.18,0.35 0.23,0.42 0.37,0.62 0,-0.02 0.01,-0.02 0.01,-0.01 z"
       fill="#d33322"
       id="path2757" /><path
       d="m 22.54,36.17 a 6.75,6.75 0 0 1 -0.19,0.92 C 12.15,27.35 14.63,14.6 19.35,7.53 a 12.76,12.76 0 0 1 4,-3.74 c -3.19,4.56 -9.69,16.78 -0.81,32.38 z"
       fill="#d33322"
       id="path2759" /><path
       d="M 49.72,35.58 C 60.6,6.89 37,0.72 37,0.72 a 11.08,11.08 0 0 1 4.42,0 c 7.92,1.57 21.89,16.28 8.3,34.86 z"
       fill="#ec6748"
       id="path2761" /><path
       d="m 27,48.08 a 18.58,18.58 0 0 1 -0.55,5.5 l 1.51,0.71 a 25.91,25.91 0 0 0 0.64,-6 C 27.57,48.15 27,48.08 27,48.08 Z"
       fill="#a1b4f2"
       id="path2763" /><path
       d="m 48.82,22 v 3.7 A 25,25 0 0 1 45.7,38 c -2.17,3.84 -5.54,7.68 -10.38,7.68 -4.84,0 -8.22,-3.84 -10.38,-7.68 A 24.9,24.9 0 0 1 21.81,25.7 V 24"
       fill="none"
       stroke="#1d1e21"
       stroke-linecap="round"
       stroke-linejoin="round"
       id="path2765" /><line
       x1="43.59"
       y1="48"
       x2="43.560001"
       y2="41.169998"
       fill="none"
       stroke="#1d1e21"
       stroke-linecap="round"
       stroke-linejoin="round"
       id="line2767" /><path
       d="m 27.08,41.17 v 6.79 a 44.24,44.24 0 0 1 -0.33,5.58"
       fill="none"
       stroke="#1d1e21"
       stroke-linecap="round"
       stroke-linejoin="round"
       id="path2769" /><path
       d="M 16.58,56.45 C 10.36,59.55 1.67,65.71 0.76,75.36 L 0.5,78.77"
       fill="none"
       stroke="#1d1e21"
       stroke-linecap="round"
       stroke-linejoin="round"
       id="path2771" /><path
       d="m 46,52.73 c -0.14,-0.1 -0.28,-0.2 -0.41,-0.31"
       fill="none"
       stroke="#1d1e21"
       stroke-linecap="round"
       stroke-linejoin="round"
       id="path2773" /><path
       d="M 70.15,78.77 69.89,75.36 A 18.14,18.14 0 0 0 66.81,66.92"
       fill="none"
       stroke="#1d1e21"
       stroke-linecap="round"
       stroke-linejoin="round"
       id="path2775" /><path
       d="m 21,25.63 c 0,0 0.16,-0.37 0.46,-1 a 19.41,19.41 0 0 1 7.63,-7.8 39.47,39.47 0 0 0 8.82,-6.92 c 0,0 -0.31,5.35 -3.11,7.31 3.65,0 5.81,-5.51 5.81,-5.51 a 24.87,24.87 0 0 0 9.06,10.78"
       fill="none"
       stroke="#1d1e21"
       stroke-linecap="round"
       stroke-linejoin="round"
       id="path2777" /><path
       d="m 23.91,37.18 a 17.89,17.89 0 0 1 -1.22,-2.7 12.72,12.72 0 0 1 -0.34,2.61 C 12.15,27.35 14.64,14.6 19.35,7.53 A 13.65,13.65 0 0 1 28.8,1.9 9.56,9.56 0 0 1 33.43,2.32 c 0,0 2.89,-2.59 8,-1.59 8,1.56 22,16.37 8.21,35 a 8.21,8.21 0 0 0 0,-3.61 c 0,0 -1.5,6.36 -6.1,9.05"
       fill="none"
       stroke="#1d1e21"
       stroke-linecap="round"
       stroke-linejoin="round"
       id="path2779" /><path
       d="m 24.39,37 c -4,1.37 -10.38,6 -11.78,16.52 a 5.47,5.47 0 0 0 4.1,-2.43 c -1.35,7 3.29,14.6 3.29,14.6 0,0 5.44,-2 6.72,-12.19"
       fill="none"
       stroke="#1d1e21"
       stroke-linecap="round"
       stroke-linejoin="round"
       id="path2781" /><path
       d="m 37.47,55 c -0.67,0 -1.38,0.08 -2.15,0.08"
       fill="none"
       stroke="#1d1e21"
       stroke-linecap="round"
       stroke-linejoin="round"
       id="path2783" /><path
       d="M 27.22,48.1 A 63.53,63.53 0 0 0 44.48,48 l 1,4.41 a 6,6 0 0 1 -1.84,1.21"
       fill="none"
       stroke="#1d1e21"
       stroke-linecap="round"
       stroke-linejoin="round"
       id="path2785" /><path
       d="M 35.32,55.07 A 19.17,19.17 0 0 1 26.85,53.51"
       fill="none"
       stroke="#1d1e21"
       stroke-linecap="round"
       stroke-linejoin="round"
       id="path2787" /><path
       d="m 56.61,78.77 c 2.2,-1.23 6.33,-3.75 8,-4.76 a 0.86,0.86 0 0 0 0.3,-1.15 v 0 a 0.86,0.86 0 0 0 -1.07,-0.38 c -2,0.79 -7.63,2.73 -10.31,4.37 a 0.25,0.25 0 0 1 -0.32,0 v 0 a 0.26,0.26 0 0 1 0,-0.33 c 1.57,-1.69 6.94,-5.34 8.83,-6.6 a 0.84,0.84 0 0 0 0.25,-1.13 v 0 a 0.83,0.83 0 0 0 -1.07,-0.34 c -2,0.89 -7.63,3.49 -8.83,4.54 a 20,20 0 0 1 -4.23,2.37 0.35,0.35 0 0 1 -0.47,-0.47 9.29,9.29 0 0 1 1.24,-2.19 c 0.83,-1 2,-2.51 2.08,-4 a 2.37,2.37 0 0 0 -0.63,-1.8 0.26,0.26 0 0 0 -0.41,0.06 9,9 0 0 1 -1.62,2.27 c -1,0.88 -4,4.45 -4.54,6.41 a 17.51,17.51 0 0 1 -1.43,3.2"
       fill="none"
       stroke="#1d1e21"
       stroke-linecap="round"
       stroke-linejoin="round"
       id="path2789" /><path
       d="m 62.72,78.77 c 0.83,-0.55 1.55,-1 2,-1.38 A 0.89,0.89 0 0 0 65,76.17 v 0 a 0.89,0.89 0 0 0 -1.13,-0.33 c -1.27,0.59 -4,1.86 -6.23,2.93"
       fill="none"
       stroke="#1d1e21"
       stroke-linecap="round"
       stroke-linejoin="round"
       id="path2791" /><path
       d="M 66.48,78.77 67,55.51 a 1.41,1.41 0 0 0 -1.36,-1.42 l -6.92,-0.15"
       fill="none"
       stroke="#1d1e21"
       stroke-linecap="round"
       stroke-linejoin="round"
       id="path2793" /><path
       d="M 45.87,53.66 38.92,53.51 A 1.39,1.39 0 0 0 37.5,54.87 L 37,78.77"
       fill="none"
       stroke="#1d1e21"
       stroke-linecap="round"
       stroke-linejoin="round"
       id="path2795" /><path
       d="m 63.33,72.61 0.31,-14.3 A 1.25,1.25 0 0 0 62.42,57 l -3.88,-0.09"
       fill="none"
       stroke="#1d1e21"
       stroke-linecap="round"
       stroke-linejoin="round"
       id="path2797" /><line
       x1="63.25"
       y1="76.080002"
       x2="63.279999"
       y2="74.879997"
       fill="none"
       stroke="#1d1e21"
       stroke-linecap="round"
       stroke-linejoin="round"
       id="line2799" /><path
       d="M 45.87,56.67 42,56.58 a 1.27,1.27 0 0 0 -1.28,1.23 l -0.45,21"
       fill="none"
       stroke="#1d1e21"
       stroke-linecap="round"
       stroke-linejoin="round"
       id="path2801" /><path
       d="M 45.94,52.83 45.87,56 a 2.26,2.26 0 0 0 2.21,2.32 l 8.18,0.17 a 2.26,2.26 0 0 0 2.32,-2.21 l 0.07,-3.21 a 0.13,0.13 0 0 0 -0.13,-0.13 l -4.29,-0.1 a 2,2 0 0 0 -3.87,-0.08 l -4.29,-0.09 a 0.12,0.12 0 0 0 -0.13,0.16 z"
       fill="none"
       stroke="#1d1e21"
       stroke-linecap="round"
       stroke-linejoin="round"
       id="path2803" /><rect
       x="42.880001"
       y="66.889999"
       width="2.55"
       height="2.8599999"
       fill="none"
       stroke="#1d1e21"
       stroke-linecap="round"
       stroke-linejoin="round"
       transform="rotate(1.44,44.237439,68.683756)"
       id="rect2805" /><polyline
       points="47.6 69.83 46.55 69.81 46.73 62.94 49.27 63 49.14 68.16"
       fill="none"
       stroke="#1d1e21"
       stroke-linecap="round"
       stroke-linejoin="round"
       id="polyline2807" /><polyline
       points="50.34 66.76 50.48 61.02 53.03 61.09 52.8 69.96 50.79 69.91"
       fill="none"
       stroke="#1d1e21"
       stroke-linecap="round"
       stroke-linejoin="round"
       id="polyline2809" /><line
       x1="55.23"
       y1="63.52"
       x2="61.150002"
       y2="63.669998"
       fill="none"
       stroke="#1d1e21"
       stroke-linecap="round"
       stroke-linejoin="round"
       id="line2811" /><line
       x1="55.16"
       y1="66.260002"
       x2="58.549999"
       y2="66.339996"
       fill="none"
       stroke="#1d1e21"
       stroke-linecap="round"
       stroke-linejoin="round"
       id="line2813" /><circle
       cx="52.259998"
       cy="52.990002"
       r="0.63"
       fill="#1d1e21"
       id="circle2815" /></g></svg>
